<?xml version="1.0" encoding="UTF-8"?>
<svg  width="700pt" height="700pt" version="1.1" viewBox="0 0 700 700" xmlns="http://www.w3.org/2000/svg" xmlns:xlink="http://www.w3.org/1999/xlink">
 <defs>
  <style>
      .cls-1 {
        fill: #fff;
        fill-rule: evenodd;
        color: white
      }
    </style>
  <symbol id="o" overflow="visible">
   <path d="m29.312-1.75c-1.5117 0.78125-3.0898 1.3711-4.7344 1.7656-1.6367 0.40625-3.3398 0.60938-5.1094 0.60938-5.3125 0-9.5273-1.4844-12.641-4.4531-3.1055-2.9688-4.6562-7-4.6562-12.094s1.5508-9.125 4.6562-12.094c3.1133-2.9688 7.3281-4.4531 12.641-4.4531 1.7695 0 3.4727 0.19922 5.1094 0.59375 1.6445 0.39844 3.2227 0.99219 4.7344 1.7812v6.5938c-1.5312-1.0391-3.0391-1.8008-4.5156-2.2812-1.4805-0.48828-3.0391-0.73438-4.6719-0.73438-2.9375 0-5.2461 0.94531-6.9219 2.8281-1.6797 1.875-2.5156 4.4648-2.5156 7.7656 0 3.293 0.83594 5.8828 2.5156 7.7656 1.6758 1.875 3.9844 2.8125 6.9219 2.8125 1.6328 0 3.1914-0.23828 4.6719-0.71875 1.4766-0.48828 2.9844-1.2539 4.5156-2.2969z"/>
  </symbol>
  <symbol id="j" overflow="visible">
   <path d="m21.453-17.406c-0.67969-0.3125-1.3516-0.53906-2.0156-0.6875-0.65625-0.15625-1.3203-0.23438-1.9844-0.23438-1.9688 0-3.4844 0.63281-4.5469 1.8906-1.0547 1.2617-1.5781 3.0703-1.5781 5.4219v11.016h-7.6562v-23.922h7.6562v3.9219c0.97656-1.5625 2.1016-2.7031 3.375-3.4219 1.2812-0.71875 2.8125-1.0781 4.5938-1.0781 0.25 0 0.52344 0.011719 0.82812 0.03125 0.30078 0.023438 0.73438 0.070312 1.2969 0.14062z"/>
  </symbol>
  <symbol id="b" overflow="visible">
   <path d="m27.562-12.031v2.1875h-17.891c0.1875 1.793 0.83203 3.1367 1.9375 4.0312 1.1133 0.89844 2.6719 1.3438 4.6719 1.3438 1.6016 0 3.25-0.23438 4.9375-0.70312 1.6875-0.47656 3.4219-1.2031 5.2031-2.1719v5.8906c-1.8047 0.6875-3.6094 1.2031-5.4219 1.5469-1.8125 0.35156-3.6211 0.53125-5.4219 0.53125-4.3359 0-7.7031-1.0977-10.109-3.2969-2.3984-2.207-3.5938-5.2969-3.5938-9.2656 0-3.9062 1.1758-6.9727 3.5312-9.2031 2.3633-2.2383 5.6094-3.3594 9.7344-3.3594 3.7578 0 6.7695 1.1367 9.0312 3.4062 2.2578 2.2617 3.3906 5.2812 3.3906 9.0625zm-7.8594-2.5312c0-1.457-0.42969-2.6289-1.2812-3.5156-0.84375-0.89453-1.9492-1.3438-3.3125-1.3438-1.4922 0-2.6992 0.41797-3.625 1.25-0.91797 0.83594-1.4922 2.0391-1.7188 3.6094z"/>
  </symbol>
  <symbol id="a" overflow="visible">
   <path d="m14.391-10.766c-1.5938 0-2.793 0.27344-3.5938 0.8125-0.80469 0.54297-1.2031 1.3398-1.2031 2.3906 0 0.96875 0.32031 1.7305 0.96875 2.2812 0.64453 0.54297 1.5469 0.8125 2.7031 0.8125 1.4375 0 2.6445-0.51562 3.625-1.5469 0.98828-1.0312 1.4844-2.3203 1.4844-3.875v-0.875zm11.688-2.8906v13.656h-7.7031v-3.5469c-1.0312 1.4492-2.1875 2.5078-3.4688 3.1719s-2.8398 1-4.6719 1c-2.4805 0-4.4961-0.72266-6.0469-2.1719-1.543-1.4453-2.3125-3.3203-2.3125-5.625 0-2.8125 0.96094-4.8672 2.8906-6.1719 1.9375-1.3125 4.9688-1.9688 9.0938-1.9688h4.5156v-0.60938c0-1.207-0.48047-2.0938-1.4375-2.6562-0.94922-0.5625-2.4375-0.84375-4.4688-0.84375-1.6367 0-3.1562 0.16797-4.5625 0.5-1.4062 0.32422-2.7188 0.8125-3.9375 1.4688v-5.8281c1.6445-0.40625 3.2891-0.70703 4.9375-0.90625 1.6562-0.20703 3.3047-0.3125 4.9531-0.3125 4.3203 0 7.4375 0.85547 9.3438 2.5625 1.9141 1.6992 2.875 4.4609 2.875 8.2812z"/>
  </symbol>
  <symbol id="i" overflow="visible">
   <path d="m12.031-30.719v6.7969h7.875v5.4688h-7.875v10.141c0 1.1172 0.21875 1.8711 0.65625 2.2656 0.4375 0.38672 1.3125 0.57812 2.625 0.57812h3.9375v5.4688h-6.5625c-3.0234 0-5.1641-0.62891-6.4219-1.8906-1.2617-1.2578-1.8906-3.3984-1.8906-6.4219v-10.141h-3.7969v-5.4688h3.7969v-6.7969z"/>
  </symbol>
  <symbol id="h" overflow="visible">
   <path d="m19.953-20.422v-12.812h7.6875v33.234h-7.6875v-3.4531c-1.0547 1.4062-2.2148 2.4375-3.4844 3.0938-1.2734 0.65625-2.7422 0.98438-4.4062 0.98438-2.9492 0-5.3711-1.1719-7.2656-3.5156-1.8867-2.3438-2.8281-5.3594-2.8281-9.0469s0.94141-6.7031 2.8281-9.0469c1.8945-2.3438 4.3164-3.5156 7.2656-3.5156 1.6562 0 3.1172 0.33594 4.3906 1 1.2812 0.65625 2.4453 1.6836 3.5 3.0781zm-5.0469 15.484c1.6445 0 2.8945-0.59766 3.75-1.7969 0.86328-1.1953 1.2969-2.9297 1.2969-5.2031 0-2.2812-0.43359-4.0195-1.2969-5.2188-0.85547-1.1953-2.1055-1.7969-3.75-1.7969-1.625 0-2.8711 0.60156-3.7344 1.7969-0.85547 1.1992-1.2812 2.9375-1.2812 5.2188 0 2.2734 0.42578 4.0078 1.2812 5.2031 0.86328 1.1992 2.1094 1.7969 3.7344 1.7969z"/>
  </symbol>
  <symbol id="g" overflow="visible">
   <path d="m16.406-4.9375c1.6328 0 2.8828-0.59766 3.75-1.7969 0.86328-1.1953 1.2969-2.9297 1.2969-5.2031 0-2.2812-0.43359-4.0195-1.2969-5.2188-0.86719-1.1953-2.1172-1.7969-3.75-1.7969-1.6367 0-2.8906 0.60547-3.7656 1.8125-0.875 1.1992-1.3125 2.9336-1.3125 5.2031 0 2.2617 0.4375 3.9961 1.3125 5.2031 0.875 1.1992 2.1289 1.7969 3.7656 1.7969zm-5.0781-15.484c1.0508-1.3945 2.2188-2.4219 3.5-3.0781 1.2812-0.66406 2.7539-1 4.4219-1 2.9453 0 5.3672 1.1719 7.2656 3.5156 1.8945 2.3438 2.8438 5.3594 2.8438 9.0469s-0.94922 6.7031-2.8438 9.0469c-1.8984 2.3438-4.3203 3.5156-7.2656 3.5156-1.668 0-3.1406-0.33594-4.4219-1s-2.4492-1.6914-3.5-3.0781v3.4531h-7.6562v-33.234h7.6562z"/>
  </symbol>
  <symbol id="f" overflow="visible">
   <path d="m0.53125-23.922h7.6562l6.4219 16.234 5.4688-16.234h7.6562l-10.062 26.188c-1.0117 2.6641-2.1953 4.5234-3.5469 5.5781-1.3438 1.0625-3.1211 1.5938-5.3281 1.5938h-4.4219v-5.0156h2.3906c1.3008 0 2.2422-0.21094 2.8281-0.625 0.59375-0.40625 1.0547-1.1484 1.3906-2.2188l0.20312-0.65625z"/>
  </symbol>
  <symbol id="e" overflow="visible">
   <path d="m0.21875-31.891h29.391v6.2188h-10.578v25.672h-8.2188v-25.672h-10.594z"/>
  </symbol>
  <symbol id="n" overflow="visible">
   <path d="m3.6719-23.922h7.6562v23.922h-7.6562zm0-9.3125h7.6562v6.2344h-7.6562z"/>
  </symbol>
  <symbol id="d" overflow="visible">
   <path d="m11.328-3.4531v12.547h-7.6562v-33.016h7.6562v3.5c1.0508-1.3945 2.2188-2.4219 3.5-3.0781 1.2812-0.66406 2.7539-1 4.4219-1 2.9453 0 5.3672 1.1719 7.2656 3.5156 1.8945 2.3438 2.8438 5.3594 2.8438 9.0469s-0.94922 6.7031-2.8438 9.0469c-1.8984 2.3438-4.3203 3.5156-7.2656 3.5156-1.668 0-3.1406-0.33594-4.4219-1s-2.4492-1.6914-3.5-3.0781zm5.0781-15.5c-1.6367 0-2.8906 0.60547-3.7656 1.8125-0.875 1.1992-1.3125 2.9336-1.3125 5.2031 0 2.2617 0.4375 3.9961 1.3125 5.2031 0.875 1.1992 2.1289 1.7969 3.7656 1.7969 1.6328 0 2.8828-0.59766 3.75-1.7969 0.86328-1.1953 1.2969-2.9297 1.2969-5.2031 0-2.2812-0.43359-4.0195-1.2969-5.2188-0.86719-1.1953-2.1172-1.7969-3.75-1.7969z"/>
  </symbol>
  <symbol id="m" overflow="visible">
   <path d="m1.5312-23.922h7.4375l4.0156 16.484 4.0469-16.484h6.375l4.0156 16.312 4.0469-16.312h7.4375l-6.3125 23.922h-8.3438l-4.0469-16.453-4.0156 16.453h-8.3438z"/>
  </symbol>
  <symbol id="l" overflow="visible">
   <path d="m27.734-14.562v14.562h-7.7031v-11.156c0-2.0625-0.046875-3.4844-0.14062-4.2656-0.085937-0.78125-0.24219-1.3594-0.46875-1.7344-0.30469-0.5-0.71094-0.88281-1.2188-1.1562-0.51172-0.28125-1.0938-0.42188-1.75-0.42188-1.5938 0-2.8516 0.61719-3.7656 1.8438-0.90625 1.2305-1.3594 2.9375-1.3594 5.125v11.766h-7.6562v-23.922h7.6562v3.5c1.1445-1.3945 2.3633-2.4219 3.6562-3.0781 1.3008-0.66406 2.7383-1 4.3125-1 2.7578 0 4.8516 0.85156 6.2812 2.5469 1.4375 1.6875 2.1562 4.1523 2.1562 7.3906z"/>
  </symbol>
  <symbol id="k" overflow="visible">
   <path d="m26.219-30.891v6.75c-1.7617-0.78125-3.4766-1.3672-5.1406-1.7656-1.668-0.40625-3.2422-0.60938-4.7188-0.60938-1.9609 0-3.4141 0.27344-4.3594 0.8125-0.9375 0.54297-1.4062 1.3867-1.4062 2.5312 0 0.85547 0.31641 1.5234 0.95312 2 0.63281 0.46875 1.7852 0.875 3.4531 1.2188l3.5 0.70312c3.5391 0.71875 6.0625 1.8047 7.5625 3.25 1.5 1.4492 2.25 3.5117 2.25 6.1875 0 3.5234-1.0469 6.1406-3.1406 7.8594-2.0859 1.7188-5.2734 2.5781-9.5625 2.5781-2.0234 0-4.0547-0.19531-6.0938-0.57812-2.0312-0.38281-4.0625-0.95703-6.0938-1.7188v-6.9375c2.0312 1.0859 3.9922 1.9023 5.8906 2.4531 1.9062 0.54297 3.7422 0.8125 5.5156 0.8125 1.7891 0 3.1602-0.29688 4.1094-0.89062 0.95703-0.60156 1.4375-1.457 1.4375-2.5625 0-1-0.32422-1.7695-0.96875-2.3125-0.64844-0.53906-1.9375-1.0234-3.875-1.4531l-3.1875-0.70312c-3.1875-0.6875-5.5234-1.7734-7-3.2656-1.4688-1.5-2.2031-3.5156-2.2031-6.0469 0-3.1758 1.0234-5.6172 3.0781-7.3281 2.0508-1.707 5-2.5625 8.8438-2.5625 1.75 0 3.5508 0.13281 5.4062 0.39062 1.8516 0.26172 3.7695 0.65625 5.75 1.1875z"/>
  </symbol>
  <symbol id="c" overflow="visible">
   <path d="m15.062-19.031c-1.6992 0-2.9961 0.60938-3.8906 1.8281-0.88672 1.2188-1.3281 2.9766-1.3281 5.2656 0 2.293 0.44141 4.0469 1.3281 5.2656 0.89453 1.2188 2.1914 1.8281 3.8906 1.8281 1.6641 0 2.9375-0.60938 3.8125-1.8281 0.88281-1.2188 1.3281-2.9727 1.3281-5.2656 0-2.2891-0.44531-4.0469-1.3281-5.2656-0.875-1.2188-2.1484-1.8281-3.8125-1.8281zm0-5.4688c4.1133 0 7.3281 1.1094 9.6406 3.3281s3.4688 5.2969 3.4688 9.2344c0 3.9297-1.1562 7.0078-3.4688 9.2344-2.3125 2.2188-5.5273 3.3281-9.6406 3.3281-4.1367 0-7.3711-1.1094-9.7031-3.3281-2.3242-2.2266-3.4844-5.3047-3.4844-9.2344 0-3.9375 1.1602-7.0156 3.4844-9.2344 2.332-2.2188 5.5664-3.3281 9.7031-3.3281z"/>
  </symbol>
 </defs>
 <g>
  <path d="m446.25 525h-227.5c-14.473 0-26.25-11.777-26.25-26.25v-43.75c0-4.8281-3.9102-8.75-8.75-8.75s-8.75 3.9219-8.75 8.75v43.75c0 24.125 19.625 43.75 43.75 43.75h227.5c4.8398 0 8.75-3.9219 8.75-8.75s-3.9102-8.75-8.75-8.75z"/>
  <path d="m371.88 413.52c-2.0195-1.1719-3.4648-3.0625-4.0781-5.3125s-0.28906-4.6094 0.88281-6.6406c1.1641-2.0195 3.0547-3.4648 5.3008-4.0703 2.2578-0.58594 4.6094-0.29688 6.6406 0.875l60.609 34.992c0.007812 0 0.007812 0.007813 0.015625 0.007813 4.1719 2.3984 9.5391 0.98047 11.953-3.2031 2.4141-4.1914 0.98047-9.5391-3.2031-11.953-4.1836-2.4062-5.6172-7.7695-3.2031-11.945 2.4062-4.1914 7.7773-5.625 11.953-3.2109 4.1719 2.4062 9.5273 0.98047 11.953-3.2031 0.79688-1.3828 1.1719-2.8867 1.1719-4.3672 0-3.0273-1.5742-5.9688-4.375-7.5859-4.1836-2.4062-5.6172-7.7695-3.2031-11.945 2.3984-4.1836 7.7617-5.625 11.953-3.2031 4.1641 2.3984 9.5273 0.98047 11.953-3.2031 0.79688-1.3828 1.1719-2.8867 1.1719-4.3672 0-3.0273-1.5742-5.9688-4.375-7.5859-4.1836-2.4062-5.6172-7.7695-3.2031-11.945 2.3984-4.1914 7.7695-5.625 11.953-3.2109l51.188 29.547c9.3359 5.3906 16.816 13.832 21.062 23.758l1.7422 4.0859c5.7148 13.379 15.812 24.762 28.41 32.043l3.2188 1.8555c4.1914 2.4062 9.5273 0.98047 11.953-3.2109 2.4141-4.1836 0.98047-9.5391-3.2031-11.953l-3.2188-1.8555c-9.3438-5.3984-16.836-13.832-21.07-23.758l-1.7422-4.0859c-5.7148-13.387-15.801-24.762-28.402-32.043l-28.684-16.566v-90.23c40.336-11.461 70-48.555 70-92.523 0-18.926-5.5312-37.273-15.977-53.059-2.668-4.0234-8.1094-5.1445-12.129-2.457-4.0352 2.668-5.1367 8.0938-2.4688 12.129 8.5508 12.902 13.074 27.906 13.074 43.387 0 43.418-35.324 78.75-78.75 78.75s-78.75-35.332-78.75-78.75 35.324-78.75 78.75-78.75c15.488 0 30.484 4.5234 43.398 13.074 4.0234 2.6602 9.457 1.5586 12.129-2.4688 2.668-4.0234 1.5664-9.457-2.4688-12.129-8.3203-5.5117-17.359-9.6055-26.809-12.293v-3.6836c0-24.125-19.625-43.75-43.75-43.75h-262.5c-24.125 0-43.75 19.625-43.75 43.75v115.82c-2.7383-1.2617-5.6523-2.0742-8.75-2.0742-12.434 0-22.504 11.016-25.359 26.25h-9.6406c-4.8398 0-8.75 3.9219-8.75 8.75v210c0 4.8281 3.9102 8.75 8.75 8.75h232.02l53.855 31.09c-1.6641 5.9688-1.7148 12.293-0.070313 18.438 2.4141 9.0312 8.207 16.582 16.301 21.254l36.355 20.992c17.734 10.238 38.84 11.828 57.918 4.3828 14.07-5.5117 29.688-4.3398 42.797 3.2383l22.828 13.188c1.3828 0.79297 2.8867 1.168 4.375 1.168 3.0273 0 5.9688-1.5664 7.5859-4.375 2.4141-4.1836 0.98047-9.5391-3.2031-11.953l-22.828-13.188c-17.727-10.246-38.84-11.848-57.918-4.3828-14.078 5.5039-29.699 4.332-42.797-3.2383l-36.355-20.992c-4.0508-2.3359-6.9492-6.1094-8.1562-10.621-0.40234-1.4883-0.52344-2.9922-0.53516-4.4961l28.219 16.293c1.375 0.79688 2.8789 1.1719 4.3672 1.1719 3.0273 0 5.9688-1.5664 7.5859-4.375 2.4141-4.1914 0.98047-9.5391-3.2031-11.953zm-205.62-221.02c2.4492 0 5.625 3.2734 7.4023 8.75h-14.797c1.7695-5.4766 4.9453-8.75 7.3945-8.75zm26.25 78.75h35v35h-35zm52.5 0h35v35h-35zm52.5 0h35v35h-35zm52.5 0h35v35h-35zm-210 52.5h35v35h-35zm52.5 0h35v35h-35zm52.5 0h35v35h-35zm52.5 0h35v35h-35zm52.5 0h35v35h-35zm-175-17.5h-35v-35h35zm-35 70h35v35h-35zm52.5 0h35v35h-35zm52.5 0h35v35h-35zm52.5 0h35v35h-35zm71.961 4.332c-6.7734 1.8125-12.434 6.1602-15.934 12.223-3.2461 5.6367-4.1836 12.117-2.8711 18.445h-0.65625v-35h35v4.9688c-4.9609-1.7656-10.332-2.0273-15.539-0.63672zm97.176-43.699c-3.3594 5.8203-4.2266 12.398-2.9414 18.508-5.9336 1.9414-11.199 5.9844-14.559 11.805-3.3594 5.8203-4.2266 12.398-2.9414 18.508-5.9336 1.9414-11.199 5.9922-14.559 11.812-1.5312 2.6523-2.5469 5.4688-3.0781 8.3203l-26.059-15.051v-180.79c0-4.8281-3.9102-8.75-8.75-8.75h-18.391c-2.8516-15.234-12.922-26.25-25.359-26.25-6.8164 0-12.879 3.3945-17.5 8.8828-4.6211-5.4883-10.684-8.8828-17.5-8.8828-14.727 0-26.25 15.375-26.25 35s11.523 35 26.25 35c4.8398 0 8.75-3.9219 8.75-8.75s-3.9102-8.75-8.75-8.75c-2.4492 0-5.625-3.2734-7.4023-8.75h17.047c2.8516 15.234 12.922 26.25 25.359 26.25 4.8398 0 8.75-3.9219 8.75-8.75s-3.9102-8.75-8.75-8.75c-2.4492 0-5.625-3.2734-7.4023-8.75h42.398v35h-245v-35h0.89062c2.8516 15.234 12.922 26.25 25.359 26.25 4.8398 0 8.75-3.9219 8.75-8.75s-3.9102-8.75-8.75-8.75c-2.4492 0-5.625-3.2734-7.4023-8.75h17.047c2.8516 15.234 12.922 26.25 25.359 26.25 4.8398 0 8.75-3.9219 8.75-8.75s-3.9102-8.75-8.75-8.75c-2.4492 0-5.625-3.2734-7.4023-8.75h68.648c4.8398 0 8.75-3.9219 8.75-8.75s-3.9102-8.75-8.75-8.75h-35.891c-2.8516-15.234-12.922-26.25-25.359-26.25-3.0977 0-6.0117 0.8125-8.75 2.0742v-115.82c0-14.473 11.777-26.25 26.25-26.25h262.5c14.473 0 26.25 11.777 26.25 26.25v0.44531c-2.8945-0.26172-5.8086-0.44531-8.75-0.44531-53.07 0-96.25 43.18-96.25 96.25s43.18 96.25 96.25 96.25c2.957 0 5.8633-0.18359 8.75-0.44531v76.844l-4.9961-2.8867c-12.547-7.2227-28.629-2.918-35.867 9.6211zm-109.23-135.63h-14.797c1.7656-5.4766 4.9453-8.75 7.4023-8.75 2.4609 0 5.6172 3.2734 7.3945 8.75zm-35 0h-14.797c1.7656-5.4766 4.9453-8.75 7.4023-8.75 2.4609 0 5.6172 3.2734 7.3945 8.75zm-128.55 0c1.7656-5.4766 4.9453-8.75 7.4023-8.75s5.625 3.2734 7.4023 8.75z"/>
  <path d="m227.5 61.25c0 4.832-3.918 8.75-8.75 8.75s-8.75-3.918-8.75-8.75 3.918-8.75 8.75-8.75 8.75 3.918 8.75 8.75"/>
  <path d="m262.5 61.25c0 4.832-3.918 8.75-8.75 8.75s-8.75-3.918-8.75-8.75 3.918-8.75 8.75-8.75 8.75 3.918 8.75 8.75"/>
  <path d="m393.75 490c4.8398 0 8.75-3.9219 8.75-8.75s-3.9102-8.75-8.75-8.75h-87.5c-4.8398 0-8.75 3.9219-8.75 8.75s3.9102 8.75 8.75 8.75z"/>
  <path d="m527.56 125.06-46.312 46.316-20.062-20.062c-3.4219-3.4219-8.9531-3.4219-12.371 0-3.4219 3.4219-3.4219 8.9531 0 12.371l26.25 26.25c1.7031 1.7031 3.9453 2.5625 6.1836 2.5625s4.4805-0.85938 6.1875-2.5625l52.5-52.5c3.4219-3.4219 3.4219-8.9531 0-12.371-3.4219-3.4258-8.9531-3.4258-12.375-0.003906z"/>
  <use x="70" y="691.25" xlink:href="#o"/>
  <use x="102.109375" y="691.25" xlink:href="#j"/>
  <use x="123.683594" y="691.25" xlink:href="#b"/>
  <use x="153.355469" y="691.25" xlink:href="#a"/>
  <use x="182.878906" y="691.25" xlink:href="#i"/>
  <use x="203.792969" y="691.25" xlink:href="#b"/>
  <use x="233.464844" y="691.25" xlink:href="#h"/>
  <use x="280.011719" y="691.25" xlink:href="#g"/>
  <use x="311.328125" y="691.25" xlink:href="#f"/>
  <use x="355.078125" y="691.25" xlink:href="#e"/>
  <use x="384.921875" y="691.25" xlink:href="#n"/>
  <use x="399.917969" y="691.25" xlink:href="#d"/>
  <use x="431.238281" y="691.25" xlink:href="#d"/>
  <use x="462.554688" y="691.25" xlink:href="#a"/>
  <use x="492.078125" y="691.25" xlink:href="#m"/>
  <use x="532.492188" y="691.25" xlink:href="#a"/>
  <use x="562.015625" y="691.25" xlink:href="#l"/>
  <use x="608.394531" y="691.25" xlink:href="#k"/>
  <use x="639.902344" y="691.25" xlink:href="#c"/>
  <use x="669.960937" y="691.25" xlink:href="#c"/>
 </g>
</svg>
